<svg t="1649158682621" class="icon" viewBox="0 0 1065 1024" version="1.1" xmlns="http://www.w3.org/2000/svg" p-id="9125" width="32" height="32"><path d="M253.066378 152.216216v13.837838h-53.275675C89.433946 166.054054 0 258.988973 0 373.621622v373.621621c0 114.632649 89.447784 207.567568 199.790703 207.567568h446.837621c39.576216-13.533405 39.576216-69.493622 0-83.027027H199.790703c-66.214054 0-119.877189-55.766486-119.877189-124.540541V373.621622c0-68.774054 53.663135-124.540541 119.863351-124.540541h84.770594a48.432432 48.432432 0 0 0 48.432433-48.432432V152.216216c0-38.20627 29.806703-69.189189 66.587676-69.189189h266.378378c36.780973 0 66.601514 30.982919 66.601513 69.189189v43.589189a53.275676 53.275676 0 0 0 53.275676 53.275676h79.913514c66.200216 0 119.863351 55.766486 119.863351 124.540541v249.081081c8.371892 43.71373 70.891243 43.589189 79.913514 0V373.621622c0-114.632649-89.447784-207.567568-199.790703-207.567568h-53.275676v-13.837838c0-84.064865-65.591351-152.216216-146.501189-152.216216h-266.378378c-80.909838 0-146.501189 68.151351-146.50119 152.216216zM678.054054 525.837838c0-76.426378-61.952-138.378378-138.378378-138.378379s-138.378378 61.952-138.378379 138.378379 61.952 138.378378 138.378379 138.378378 138.378378-61.952 138.378378-138.378378z m83.027027 0c0 122.284973-99.120432 221.405405-221.405405 221.405405s-221.405405-99.120432-221.405406-221.405405 99.120432-221.405405 221.405406-221.405406 221.405405 99.120432 221.405405 221.405406z m96.864865 207.567567a41.513514 41.513514 0 1 1 83.027027 0v83.027027h83.027027a41.513514 41.513514 0 1 1 0 83.027027h-83.027027v83.027027a41.513514 41.513514 0 1 1-83.027027 0v-83.027027h-83.027027a41.513514 41.513514 0 1 1 0-83.027027h83.027027v-83.027027z" fill="#2F3A89" p-id="9126"></path></svg>
