<svg xmlns="http://www.w3.org/2000/svg" xmlns:xlink="http://www.w3.org/1999/xlink" width="165" height="165" viewBox="0 0 165 165">
  <defs>
    <filter id="Shape_shadow" x="20" y="20" width="145" height="145" filterUnits="userSpaceOnUse">
      <feOffset dx="10" dy="10" input="SourceAlpha"/>
      <feGaussianBlur stdDeviation="7.5" result="blur"/>
      <feFlood flood-color="#97a7c3" flood-opacity="0.498"/>
      <feComposite operator="in" in2="blur"/>
      <feComposite in="SourceGraphic"/>
    </filter>
    <filter id="Shape_light" x="0" y="0" width="145" height="145" filterUnits="userSpaceOnUse">
      <feOffset dx="-10" dy="-10" input="SourceAlpha"/>
      <feGaussianBlur stdDeviation="7.5" result="blur-2"/>
      <feFlood flood-color="#fff"/>
      <feComposite operator="in" in2="blur-2"/>
      <feComposite in="SourceGraphic"/>
    </filter>
  </defs>
  <g id="组_406" data-name="组 406" transform="translate(-133.5 -204.5)">
    <g id="Shape" transform="translate(28 -32)">
      <g transform="matrix(1, 0, 0, 1, 105.5, 236.5)" filter="url(#Shape_shadow)">
        <circle id="Shape_shadow-2" data-name="Shape shadow" cx="50" cy="50" r="50" transform="translate(32.5 32.5)" fill="#ecf0f3"/>
      </g>
      <g transform="matrix(1, 0, 0, 1, 105.5, 236.5)" filter="url(#Shape_light)">
        <circle id="Shape_light-2" data-name="Shape light" cx="50" cy="50" r="50" transform="translate(32.5 32.5)" fill="#f0f2fa"/>
      </g>
    </g>
    <g id="组_47" data-name="组 47" transform="translate(-537.415 32.027)">
      <path id="路径_69" data-name="路径 69" d="M869.346,1093.93c-2.244-1.923-4.269-4.129-5-7a7.456,7.456,0,0,0-2,6c.467,2.107,1.882,4.63,3,7,.382.811,1.362.627,2,0l2-2a2.807,2.807,0,0,0,0-4Z" transform="translate(-118.931 -807.957)" fill="#193566" fill-rule="evenodd"/>
      <path id="路径_70" data-name="路径 70" d="M789,898.5c-.157-3.016,1.515-7.012,3-9-1.841-.581-4.909-1.446-7-3-.581,1.505-.292,2.412,0,4a66.6,66.6,0,0,0,4,8Z" transform="translate(-46.582 -621.526)" fill="#193566" fill-rule="evenodd"/>
      <path id="路径_71" data-name="路径 71" d="M1056.188,327.052a6.922,6.922,0,0,0,2-4,18.359,18.359,0,0,1-1-5,29.147,29.147,0,0,0-4,2,27.285,27.285,0,0,0,3,7Z" transform="translate(-295.773 -93.078)" fill="#193566" fill-rule="evenodd"/>
      <path id="路径_72" data-name="路径 72" d="M737.415,532.716c2.463-3.906,6.371-6.951,11-10-3.318-.328-5.792-1.309-7-3-3.447,3.534-6.437,6.8-7,10-.171,1.609,1.534,2.528,3,3Zm26,1c4.061-3.176,6.03-6.194,5-9-.754-1.818-2.3-1.85-4-2-2.814,3.2-8.749,7.189-14,11,4.516-.147,9.422-.583,13,0Z" transform="translate(0 -280.743)" fill="#193566" fill-rule="evenodd"/>
      <g id="组_44" data-name="组 44" transform="translate(743.175 244.151)">
        <path id="路径_73" data-name="路径 73" d="M883.511,604.358c-.09-3.256-1.8-6.119-3-9,1.03,2.807-.939,5.824-5,9-5.071,3.966-12.784,8.458-17,15a21.764,21.764,0,0,0-3,17,7.456,7.456,0,0,1,2-6c4.771-5.889,17.359-10.05,23-17a13.776,13.776,0,0,0,3-9Z" transform="translate(-855.271 -595.536)" fill="#193566" fill-rule="evenodd"/>
        <path id="路径_74" data-name="路径 74" d="M1140.465,604.358c5.164.847,8.147,3.173,5,9a13.777,13.777,0,0,0,3-9c-.09-3.256-1.8-6.119-3-9,1.03,2.807-.939,5.824-5,9Z" transform="translate(-1120.224 -595.536)" fill="#193566" fill-rule="evenodd"/>
        <path id="路径_75" data-name="路径 75" d="M857.511,947.844a17.681,17.681,0,0,1,1-11,21.764,21.764,0,0,0-3,17,7.456,7.456,0,0,1,2-6Z" transform="translate(-855.271 -913.022)" fill="#193566" fill-rule="evenodd"/>
        <path id="路径_76" data-name="路径 76" d="M955.885,614.511c3.488-2.716,6.609-5.162,6-8,.328,2.538-2.308,5.114-6,8-4.172,3.263-9.82,7.123-14,12,4.462-4.849,9.753-8.7,14-12Z" transform="translate(-935.645 -605.689)" fill="#193566" fill-rule="evenodd"/>
        <path id="路径_77" data-name="路径 77" d="M863.926,915.013c3.842-4.743,12.912-8.221,19-13-6.173,4.477-15.213,7.149-19,12a8.161,8.161,0,0,0-2,6c-.067-2.076.668-3.355,2-5Z" transform="translate(-861.685 -880.191)" fill="#193566" fill-rule="evenodd"/>
        <path id="路径_78" data-name="路径 78" d="M890.111,645.948c.924,15.225-22.631,16.478-26,32,1.358-2.948,4.331-5.314,7-7,4.25-2.688,8.926-5.047,13-8,3.793-2.977,7.142-6.888,7-12a17.247,17.247,0,0,0-1-5Z" transform="translate(-863.871 -642.126)" fill="#193566" fill-rule="evenodd"/>
      </g>
      <g id="组_45" data-name="组 45" transform="translate(735.112 230.444)">
        <path id="路径_79" data-name="路径 79" d="M765.378,403.213c-2.654,2.321-7.361,4.943-12,8s-8.537,6.094-11,10c-1.621,2.569-2.617,5.036-2,8a43.711,43.711,0,0,0,3,9c-.292-1.588-.581-2.495,0-4,1.663-4.312,6.934-8.326,12-12,5.251-3.811,11.186-7.8,14-11a3.775,3.775,0,0,0,1-4,65.443,65.443,0,0,1-3-8,6.923,6.923,0,0,1-2,4Z" transform="translate(-740.076 -399.684)" fill="#193566" fill-rule="evenodd"/>
        <path id="路径_80" data-name="路径 80" d="M1108.015,411.213a3.775,3.775,0,0,0,1-4,65.464,65.464,0,0,1-3-8,6.939,6.939,0,0,1-2,4c2.556,3.6,5.586,5.813,4,8Z" transform="translate(-1078.712 -399.684)" fill="#193566" fill-rule="evenodd"/>
        <path id="路径_81" data-name="路径 81" d="M746.583,825.466a9.163,9.163,0,0,1-3-5,43.714,43.714,0,0,0,3,9c-.292-1.588-.581-2.495,0-4Z" transform="translate(-743.281 -790.937)" fill="#193566" fill-rule="evenodd"/>
        <path id="路径_82" data-name="路径 82" d="M779.646,570.46c5.251-3.811,11.186-7.8,14-11-4.245-.372-11.058.485-16,0-4.629,3.049-8.537,6.094-11,10,2.832.909,7.6,1.176,13,1Z" transform="translate(-764.344 -547.931)" fill="#193566" fill-rule="evenodd"/>
        <path id="路径_83" data-name="路径 83" d="M808.38,403.213a5.739,5.739,0,0,0,2-4,6.939,6.939,0,0,1-2,4c-2.651,2.321-7.358,4.941-12,8-3.852,2.535-7.408,4.876-10,8,2.793-3.132,6.905-5.488,11-8a68.512,68.512,0,0,0,11-8Z" transform="translate(-783.077 -399.684)" fill="#193566" fill-rule="evenodd"/>
        <path id="路径_84" data-name="路径 84" d="M782.908,614.533a8.995,8.995,0,0,0,0,5c-.292-1.588-.581-2.495,0-4,1.828-4.74,8-9.093,12-12,4.141-3,7.969-6.377,11-9-3.834,3.085-7.936,6.173-12,9-3.963,2.724-9.49,6.239-11,11Z" transform="translate(-779.606 -581.004)" fill="#193566" fill-rule="evenodd"/>
        <path id="路径_85" data-name="路径 85" d="M795.892,431.067c4.087,11.882-28.865,12.861-25,32,.94-5.608,7.608-9.959,12-13,4.1-2.835,8.115-4.874,12-8,1.51-1.306,4.416-3.847,4-6-.821-1.673-2.326-3.265-3-5Z" transform="translate(-768.589 -428.539)" fill="#193566" fill-rule="evenodd"/>
      </g>
      <g id="组_46" data-name="组 46" transform="translate(734.76 217.708)">
        <path id="路径_86" data-name="路径 86" d="M762.694,217.973c-2.117.935-4.089,1.931-6,3a49.54,49.54,0,0,0-14,11c-4.268,5.089-7.316,10.559-8,17,.563-3.2,3.553-6.466,7-10a75.252,75.252,0,0,1,16-12,29.143,29.143,0,0,1,4-2,22.038,22.038,0,0,1,1-7Z" transform="translate(-735.039 -217.708)" fill="#193566" fill-rule="evenodd"/>
        <path id="路径_87" data-name="路径 87" d="M734.694,437.358c.563-3.2,3.553-6.465,7-10-1.056-1.477-.949-3.726,1-7-4.268,5.089-7.316,10.559-8,17Z" transform="translate(-735.039 -406.093)" fill="#193566" fill-rule="evenodd"/>
        <path id="路径_88" data-name="路径 88" d="M1046.617,224.973a22.036,22.036,0,0,1,1-7c-2.117.935-4.089,1.931-6,3a13.72,13.72,0,0,0,1,6,29.154,29.154,0,0,1,4-2Z" transform="translate(-1019.962 -217.708)" fill="#193566" fill-rule="evenodd"/>
        <path id="路径_89" data-name="路径 89" d="M757.694,308.454a29.279,29.279,0,0,1,4-2c-.021-.289.008-.708,0-1a34.435,34.435,0,0,0-5,2,63.082,63.082,0,0,0-15,12c-3.3,3.568-6.456,7.453-7,11,.563-3.2,3.553-6.466,7-10a75.309,75.309,0,0,1,16-12Z" transform="translate(-735.039 -299.189)" fill="#193566" fill-rule="evenodd"/>
        <path id="路径_90" data-name="路径 90" d="M767.06,256.967c4.438-8.639,12.648-15.325,24-21a17.148,17.148,0,0,1,0-2c-10.418,4.812-20.034,11.844-24,23Z" transform="translate(-764.405 -232.702)" fill="#193566" fill-rule="evenodd"/>
      </g>
    </g>
  </g>
</svg>
