<svg t="1649235440587" class="icon" viewBox="0 0 1047 1024" version="1.1" xmlns="http://www.w3.org/2000/svg" p-id="5992" width="32" height="32"><path d="M523.61254 10.89155c-276.757862 0-501.113564 224.355701-501.113564 501.113563s224.355701 501.113564 501.113564 501.113564 501.113564-224.355701 501.113563-501.113564-224.355701-501.113564-501.113563-501.113563zM291.62764 280.020214h132.559878v44.190035h-88.38007v88.380069h-44.190034V280.020214z m132.559878 463.959572H291.62764V600.374956h44.190035v99.425022h88.38007v44.179808z m-55.234987-209.884769v-44.190034h309.309791v44.190034H368.952531z m386.644908 209.884769H611.921022v-44.190035h99.486382v-99.425022h44.190035v143.615057z m0-331.399694h-44.190035v-88.38007h-99.486382V280.009987h143.676417v132.570105z" p-id="5993" data-spm-anchor-id="a313x.7781069.0.i12" class="" fill="#bfbfbf"></path></svg>